<svg xmlns="http://www.w3.org/2000/svg" xmlns:xlink="http://www.w3.org/1999/xlink" version="1.1" id="Layer_1" x="0px" y="0px" width="96px" height="99.818px" viewBox="0 0 96 99.818" enable-background="new 0 0 96 99.818" xml:space="preserve">
<g>
	<g>
		<circle fill="#CC2A09" cx="41.597" cy="57.333" r="4.275"/>
		<path fill="#000000" d="M47.721,63.152H35.529c-1.042,0-1.887,0.845-1.887,1.886v10.779c0,1.041,0.845,1.885,1.887,1.885h0.58    v16.846h10.81V77.702h0.802c1.042,0,1.884-0.844,1.884-1.885V65.038C49.605,63.997,48.764,63.152,47.721,63.152z"/>
	</g>
	<g>
		<circle fill="#CC2A09" cx="60.807" cy="57.333" r="4.275"/>
		<path fill="#000000" d="M66.93,63.152H54.738c-1.041,0-1.887,0.845-1.887,1.886v10.779c0,1.041,0.846,1.885,1.887,1.885h0.58    v16.846h10.809V77.702h0.803c1.043,0,1.887-0.844,1.887-1.885V65.038C68.814,63.997,67.973,63.152,66.93,63.152z"/>
	</g>
	<g>
		<path fill="#CC2A09" d="M33.088,63.915L20.974,48.725l3.701,0.007l-2.97-11.117l12.086,15.42l-3.681-0.007L33.088,63.915z     M23.952,50.163l5.92,7.424l-1.639-5.993l2.611,0.006l-5.95-7.592l1.646,6.161L23.952,50.163z"/>
	</g>
	<g>
		<path fill="#CC2A09" d="M50.805,56.407l2.981-10.885l-3.681,0.007l12.084-15.423l-2.969,11.119l3.702-0.009L50.805,56.407z     M55.663,44.087l-1.64,5.99l5.92-7.421l-2.59,0.006L59,36.499l-5.95,7.593L55.663,44.087z"/>
	</g>
	<g>
		<path fill="none" d="M18.302,31.32l4.521,5.769l5.464,6.972H49.6l11.348-14.481l4.521-5.771l-1.893,7.084l-2.467,9.228    l1.746-0.004l3.125-0.007l-1.948,2.441l-1.204,1.51h10.917c5.577,0,10.118-4.717,10.118-10.51c0-5.676-4.449-10.384-9.922-10.491    l-2.264-0.046l-0.652-2.168c-1.131-3.745-4.654-6.361-8.567-6.361c-1.283,0-2.536,0.275-3.724,0.823l-2.221,1.018l-1.52-1.913    c-3.497-4.406-8.721-6.934-14.331-6.934c-9.415,0-17.417,7.341-18.217,16.713l-0.214,2.508l-2.498,0.316    c-4.264,0.535-7.479,4.186-7.479,8.481c0,4.721,3.841,8.562,8.562,8.562h0.886L20.191,38.4L18.302,31.32z"/>
		<path fill="#000000" enable-background="new    " d="M74.008,19.946c-1.498-4.96-6.098-8.575-11.549-8.575    c-1.795,0-3.491,0.402-5.021,1.105c-3.922-4.94-9.974-8.111-16.771-8.111c-11.2,0-20.384,8.603-21.32,19.561    C13.595,24.652,9.144,29.55,9.144,35.498c0,6.448,5.228,11.675,11.675,11.675h1.718l-0.832-3.111h-0.886    c-4.721,0-8.562-3.843-8.562-8.562c0-4.297,3.215-7.946,7.479-8.481l2.498-0.316l0.214-2.508    c0.8-9.372,8.802-16.713,18.217-16.713c5.61,0,10.834,2.526,14.331,6.934l1.52,1.913l2.221-1.018    c1.188-0.547,2.439-0.823,3.724-0.823c3.913,0,7.438,2.616,8.567,6.361l0.652,2.168l2.264,0.046    c5.473,0.107,9.923,4.815,9.923,10.491c0,5.794-4.541,10.51-10.119,10.51H62.829l-2.481,3.111h13.398    c7.309,0,13.23-6.098,13.23-13.621C86.979,26.121,81.193,20.091,74.008,19.946z"/>
		<polygon fill="#000000" points="49.602,44.06 28.287,44.06 30.727,47.173 47.161,47.173 48.861,45.002   "/>
	</g>
	<path fill="#000000" d="M53.941,27.216c-1.174,0-2.131,0.893-2.258,2.033l-6.87,4.968c-0.305-0.15-0.644-0.243-1.008-0.243   c-0.672,0-1.27,0.295-1.688,0.757l-4.789-2.117c-0.221-1.03-1.135-1.803-2.231-1.803c-1.242,0-2.247,0.991-2.278,2.226   l-2.676,2.532c-0.152-0.032-0.309-0.049-0.47-0.049c-1.261,0-2.284,1.021-2.284,2.282c0,1.263,1.022,2.284,2.284,2.284   c1.262,0,2.284-1.021,2.284-2.284c0-0.467-0.142-0.9-0.383-1.263l1.922-1.819c0.412,0.405,0.977,0.657,1.601,0.657   c0.808,0,1.513-0.421,1.919-1.054l4.51,1.993c0.033,1.232,1.037,2.224,2.278,2.224c1.261,0,2.284-1.021,2.284-2.284   c0-0.271-0.056-0.53-0.144-0.772l6.254-4.522c0.419,0.498,1.039,0.822,1.74,0.822c1.262,0,2.283-1.022,2.283-2.283   S55.203,27.216,53.941,27.216z"/>
	<g>
		<path fill="#000000" d="M44.066,24.432c0,0-0.938-0.89-1.055-1.562c-0.002-0.009-0.004-0.019-0.005-0.027    c-0.275-1.229-1.495-2.008-2.727-1.732c-1.232,0.273-2.008,1.495-1.735,2.726c0.053,0.235,0.14,0.455,0.254,0.652    c0.074,0.125,0.157,0.242,0.25,0.349c0.387,0.489,1.216,1.353,2.423,1.633c1.722,0.404,4.277-0.431,4.735-1.983    C45.517,24.919,44.682,25.038,44.066,24.432z"/>
		<path fill="#000000" d="M39.881,20.204l-0.593-0.564c-0.122-0.117-0.317-0.112-0.434,0.01l-0.308,0.32    c0.104-0.396,0.058-0.812-0.117-1.167c0,0-0.056-0.109-0.179-0.279c-0.125-0.167-0.319-0.393-0.587-0.624    c-0.133-0.118-0.285-0.237-0.452-0.358c-0.166-0.121-0.341-0.25-0.523-0.382c-0.363-0.263-0.756-0.538-1.152-0.812    c-0.39-0.277-0.796-0.542-1.171-0.796c-0.38-0.244-0.732-0.478-1.044-0.668c-0.308-0.191-0.57-0.348-0.755-0.457    c-0.187-0.104-0.292-0.167-0.292-0.167c-0.213-0.12-0.483-0.048-0.606,0.164c-0.08,0.145-0.075,0.312,0,0.443    c0,0,0.062,0.106,0.168,0.292c0.107,0.184,0.263,0.447,0.456,0.755c0.19,0.312,0.422,0.665,0.669,1.045    c0.253,0.375,0.517,0.779,0.793,1.171c0.274,0.396,0.549,0.788,0.813,1.152c0.132,0.182,0.261,0.356,0.381,0.522    c0.121,0.167,0.239,0.317,0.357,0.45c0.234,0.271,0.458,0.462,0.625,0.587c0.169,0.123,0.28,0.181,0.28,0.181    c0.401,0.202,0.843,0.224,1.239,0.099l-0.374,0.394c-0.118,0.121-0.112,0.316,0.01,0.434l0.592,0.565    c0.124,0.116,0.318,0.111,0.436-0.012l1.778-1.862C40.009,20.515,40.004,20.322,39.881,20.204z"/>
	</g>
	<g>
		<path fill="#000000" d="M73.5,31.273v-5.768l0.544-1.097l-0.539-0.269l-0.608,1.224v6.366l0.226,0.06    c1.958,0.517,3.323,2.288,3.323,4.312c0,2.461-2.002,4.463-4.461,4.463c-2.463,0-4.465-2.002-4.465-4.463    c0-2.022,1.367-3.795,3.326-4.312l0.225-0.06v-6.366l-0.607-1.225l-0.541,0.269l0.545,1.098v5.768    c-2.101,0.658-3.548,2.609-3.548,4.828c0,2.793,2.271,5.064,5.065,5.064c2.791,0,5.063-2.271,5.063-5.063    C77.048,33.884,75.602,31.931,73.5,31.273z"/>
		<path fill="#000000" d="M71.984,39.935c2.082,0,3.77-1.689,3.77-3.771h-7.543C68.211,38.246,69.898,39.935,71.984,39.935z"/>
	</g>
</g>
</svg>