<?xml version="1.0" encoding="utf-8"?>
<!-- Generator: Adobe Illustrator 15.0.2, SVG Export Plug-In . SVG Version: 6.00 Build 0)  -->
<!DOCTYPE svg PUBLIC "-//W3C//DTD SVG 1.1//EN" "http://www.w3.org/Graphics/SVG/1.1/DTD/svg11.dtd">
<svg version="1.1" id="Layer_1" xmlns="http://www.w3.org/2000/svg" xmlns:xlink="http://www.w3.org/1999/xlink" x="0px" y="0px"
	 width="595.28px" height="161.723px" viewBox="0 0 595.28 161.723" enable-background="new 0 0 595.28 161.723"
	 xml:space="preserve">
<path fill="#3A6190" d="M76.466,103.01c-15.574,0-26.292-10.932-26.292-25.72v-0.144c0-14.218,11.075-25.863,26.221-25.863
	c9.001,0,14.432,2.429,19.647,6.858l-6.931,8.359c-3.857-3.215-7.287-5.072-13.074-5.072c-8.002,0-14.361,7.072-14.361,15.576v0.142
	c0,9.145,6.288,15.86,15.147,15.86c4,0,7.573-1,10.358-3.001v-7.145H76.109v-9.502h21.72v21.72
	C92.685,99.438,85.611,103.01,76.466,103.01"/>
<path fill="#3A6190" d="M131.683,103.01c-15.433,0-26.506-11.503-26.506-25.72v-0.144c0-14.218,11.216-25.863,26.649-25.863
	c15.432,0,26.505,11.503,26.505,25.72v0.144C158.332,91.364,147.116,103.01,131.683,103.01 M146.829,77.146
	c0-8.573-6.287-15.718-15.146-15.718c-8.858,0-15.004,7.002-15.004,15.574v0.144c0,8.573,6.288,15.718,15.147,15.718
	c8.859,0,15.003-7.002,15.003-15.574V77.146z"/>
<path fill="#3A6190" d="M190.036,103.01c-14.433,0-25.078-11.359-25.078-25.792c0-14.289,10.573-25.935,25.292-25.935
	c9.073,0,14.502,3.216,19.503,7.931l-3.857,4.144c-4.215-4.001-8.93-6.858-15.718-6.858c-11.074,0-19.362,8.93-19.362,20.576
	c0,11.646,8.359,20.719,19.362,20.719c6.859,0,11.359-2.644,16.147-7.216l3.715,3.644C204.824,99.509,199.109,103.01,190.036,103.01
	"/>
<path fill="#3A6190" d="M265.465,102.152h-6.074l-5.858-13.217h-27.221l-5.93,13.217h-5.787l22.791-50.369h5.288L265.465,102.152z
	 M239.959,58.356l-11.431,25.506h22.79L239.959,58.356z"/>
<path fill="#3A6190" d="M308.028,102.152L293.524,82.72h-14.289v19.433h-5.644V52.141h21.505c11.003,0,18.076,5.93,18.076,14.932
	c0,8.358-5.716,13.218-13.574,14.646l15.36,20.434H308.028z M294.668,57.355h-15.433v20.292h15.361
	c7.501,0,12.86-3.859,12.86-10.361C307.457,61.071,302.741,57.355,294.668,57.355"/>
<path fill="#3A6190" d="M341.454,102.152h-17.36V52.141h17.36c15.717,0,26.577,10.788,26.577,24.935
	S357.171,102.152,341.454,102.152 M341.454,57.355h-11.717v39.582h11.717c12.646,0,20.719-8.574,20.719-19.72
	C362.173,66.073,354.101,57.355,341.454,57.355"/>
<polygon fill="#3A6190" points="378.667,52.141 384.311,52.141 384.311,96.937 412.46,96.937 412.46,102.152 378.667,102.152 "/>
<polygon fill="#3A6190" points="456.961,57.285 426.452,57.285 426.452,74.36 453.746,74.36 453.746,79.504 426.452,79.504 
	426.452,97.008 457.317,97.008 457.317,102.152 420.81,102.152 420.81,52.141 456.961,52.141 "/>
<path fill="#3A6190" d="M485.351,74.432c11.146,2.429,16.289,6.502,16.289,14.218c0,8.645-7.145,14.218-17.075,14.218
	c-7.931,0-14.432-2.644-20.434-8.003l3.501-4.144c5.216,4.716,10.217,7.073,17.146,7.073c6.716,0,11.146-3.5,11.146-8.573
	c0-4.716-2.5-7.358-13.003-9.573c-11.503-2.501-16.79-6.216-16.79-14.504c0-8.002,6.931-13.718,16.433-13.718
	c7.288,0,12.504,2.072,17.576,6.146l-3.287,4.357c-4.644-3.787-9.287-5.43-14.433-5.43c-6.501,0-10.645,3.572-10.645,8.145
	C471.775,69.431,474.348,72.073,485.351,74.432"/>
<path fill="#3A6190" d="M529.701,74.432c11.146,2.429,16.29,6.502,16.29,14.218c0,8.645-7.146,14.218-17.076,14.218
	c-7.93,0-14.432-2.644-20.434-8.003l3.502-4.144c5.215,4.716,10.216,7.073,17.146,7.073c6.717,0,11.146-3.5,11.146-8.573
	c0-4.716-2.499-7.358-13.003-9.573c-11.502-2.501-16.789-6.216-16.789-14.504c0-8.002,6.93-13.718,16.433-13.718
	c7.287,0,12.503,2.072,17.575,6.146l-3.286,4.357c-4.645-3.787-9.288-5.43-14.434-5.43c-6.5,0-10.644,3.572-10.644,8.145
	C516.127,69.431,518.699,72.073,529.701,74.432"/>
</svg>
