<svg xmlns="http://www.w3.org/2000/svg" xmlns:xlink="http://www.w3.org/1999/xlink" version="1.1" id="Layer_1" x="0px" y="0px" width="100px" height="100px" viewBox="0 0 100 100" enable-background="new 0 0 100 100" xml:space="preserve">
<path d="M62.475,35.858c-1.089-1.089-2.855-1.089-3.944,0L4.19,90.197c-1.089,1.09-1.089,2.855,0,3.944  c1.089,1.09,2.854,1.09,3.944,0l6.872-6.872l7.57-7.57l39.897-39.897C63.564,38.713,63.564,36.947,62.475,35.858z M59.321,36.506  c0.691-0.692,1.813-0.691,2.505,0c0.691,0.691,0.692,1.813,0,2.505l-4.808,4.808c-0.691,0.691-1.813,0.691-2.505,0  s-0.692-1.813-0.001-2.504L59.321,36.506z M7.609,93.229c-0.691,0.69-1.813,0.69-2.504-0.001s-0.692-1.813-0.001-2.505l4.809-4.809  c0.111-0.111,0.237-0.198,0.366-0.273c0.074,0.595,0.328,1.172,0.785,1.629c0.457,0.456,1.033,0.709,1.628,0.783  c-0.076,0.13-0.163,0.255-0.274,0.366L7.609,93.229z"/>
<polygon points="62.535,24.471 70.609,30.337 60.629,30.337 68.704,24.471 65.619,33.963 "/>
<polyline points="58.484,23.954 54.628,12.083 64.726,19.418 52.244,19.418 62.342,12.083 58.484,23.954 "/>
<polyline points="72.276,49.441 68.884,38.999 77.766,45.452 66.787,45.452 75.668,38.999 72.276,49.441 "/>
<polyline points="89.796,40.56 87.317,32.931 93.807,37.646 85.785,37.646 92.275,32.931 89.796,40.56 "/>
<polyline points="70.944,13.791 69.124,8.187 73.891,11.65 67.999,11.65 72.767,8.187 70.944,13.791 "/>
<polyline points="85.785,26.329 82.199,15.291 91.588,22.112 79.982,22.112 89.372,15.291 85.785,26.329 "/>
<polyline points="76.836,32.931 75.016,27.327 79.782,30.79 73.891,30.79 78.658,27.327 76.836,32.931 "/>
</svg>